M48
;Layer_Color=9474304
;FILE_FORMAT=2:5
INCH,LZ
;TYPE=PLATED
T1F00S00C0.00400
T2F00S00C0.00600
T3F00S00C0.00800
T4F00S00C0.01000
T6F00S00C0.03268
T7F00S00C0.03504
T8F00S00C0.03543
T9F00S00C0.03898
T10F00S00C0.03900
T11F00S00C0.04016
T12F00S00C0.04200
T13F00S00C0.04724
T14F00S00C0.04843
T15F00S00C0.05000
T16F00S00C0.05709
T17F00S00C0.06181
T18F00S00C0.06496
T19F00S00C0.20000
;TYPE=NON_PLATED
T20F00S00C0.03346
T21F00S00C0.03937
T22F00S00C0.05512
T23F00S00C0.06693
T24F00S00C0.12795
%
T01
X00684Y00458
X00715Y00441
X00728Y00417
X0084158Y0040962
Y0052856
X00865Y00653
X0077527Y0067272
X00771Y0070485
X00701Y0071974
X0067554Y0074583
X00963
Y0078324
X0101621Y0069869
X0106103Y0068302
Y0040962
X0101621Y00417
X0098Y00431
X00985Y0039
X0095555Y0035594
X00958Y00473
X0086559Y00855
X00988Y00922
X0091291Y0102931
X0131Y01006
X0125941Y00936
X0145Y0093059
X0289888Y0059088
X03138Y00499
X03503Y00108
X04505Y0049
X04635Y0054564
X0410279Y0091968
X04442Y01471
X04734Y0152984
X04768Y01548
X04778Y01016
X04805Y00827
X05337Y00609
X05496Y0059225
X0720248Y0072566
Y0123852
X06776Y0131884
X0841Y01139
X08387Y01077
X08342Y01037
X08456Y01099
X08492Y01154
X08304Y00594
X0819131Y0059431
X0810469
X08148Y00551
X0810469Y0050769
X0819131
X08287Y0049
X08204Y00294
X0817753Y0031556
X08153Y00337
X0800221Y0050179
X08157Y00698
X089833Y0142441
X098897Y01171
X09808Y01736
X09841Y01775
X0979705Y01808
X09747Y01765
X09742Y01848
X0968Y02054
X09625
X0954957
X09553Y02102
X095065Y0214397
X09929Y02113
X0997079Y0220064
X0996968Y02284
X0990037Y0235
X07071Y02402
X07064Y0254999
X0706163Y0270495
X07089Y0285552
Y030037
X06747Y02983
X06709Y0298342
Y029455
X06747Y0294456
X0667Y02945
Y02984
X0667004Y03021
X06709Y03022
X0663Y0302181
Y029843
X066305Y02945
X0663079Y029059
X0667022Y0290501
X0667Y02867
X06709
X06747
X0674819Y0282577
X0674954Y0278801
X0671022Y0278665
X0667059
Y0282658
X0671022Y0282713
X06709Y02745
X0674741Y0274565
X0674961Y0270737
X0674954Y026692
X06709Y0262934
X0667102Y0262797
X0667191Y0258932
X0667022Y0254924
X0667004Y0251268
X0671022Y0251181
X06709Y0247091
X0667022Y0246999
X0659282Y0247028
X0655165Y02472
Y0251026
X0651292
X064736Y0251058
X064339Y0251065
Y0254957
X06394
X0635527Y025495
X0631625Y0254957
Y0251047
X0635541Y0251026
X0635541Y0247093
Y024319
X0639475Y0243182
X0643367Y024319
X0643372Y0247095
X0639475
Y0251065
X0639424Y0259
X06394Y02628
X0635527Y0262979
X0631625Y0262991
Y0266951
X0635494Y0266952
X06354Y02707
X0635494Y0274565
X0631625Y0274601
X0631588Y0270877
X0627629
X0627651Y0274731
Y0278771
X0631578
Y0282658
X0635541
X0639494Y0282693
X0639475Y0278665
X0643417
Y02825
X0647336Y0282577
Y0278731
X0651261Y0278771
X0655152
X0655232Y0282713
X06512
X0651243Y02905
X0651234Y0294456
X06551
X065895Y02945
X06589Y0298298
Y0302198
X06551Y03022
Y0298407
X06512Y029832
X064715Y0298307
X0647336Y0294456
X06433
Y02905
X0639424
X06354
X0631611
X0631587Y0294456
X06316Y02983
X063555Y02984
X06392Y02983
Y0294456
X063555
Y0302331
X06392Y03023
X06431Y0302385
X064715
X065105Y0302344
X06431Y02983
X06318Y0302302
X062755Y03023
X0627547Y0294456
X06275Y0282713
X0635527Y0278665
X0639455Y0274731
X0639424Y0270877
X0639455Y0266951
X0643411Y02669
Y0262989
X0643406Y025906
X064736
Y0263004
X0647348Y0266952
X06512
X0651288Y0270877
Y0274601
X06551Y0274646
X065523Y0270877
X0655215Y0266952
X06551Y0259064
X0651292Y0259
X06512Y02628
X0651292Y02551
X06473
Y0247135
X06512Y0247091
X0651292Y0243156
X06551Y0243152
X0655245Y0239181
X06512
X064736
Y0243168
X0647373Y02352
X0651292
X0655163
X0655253Y0231298
X0655165Y022741
X0651076
X0647401
Y0231304
X0651262Y0231298
X0643455Y0231307
X0643417Y02352
X06394
X0635541
X063558Y0231327
X06394Y0231307
Y0227356
X063558
X0631634
X063163Y0231307
X0631578Y02352
X0627618
X0627591Y0239181
X0631611
X06354Y02392
X0639475Y0239181
X06433Y02392
X0643365Y022741
Y0219114
X0643455Y0215476
X06473
X0647401Y0219114
X065133
X0651076Y0215476
X0651157Y02117
X06473Y0211548
X0643455
X064345Y0207634
X06473Y02076
X06513
X0655297Y0207634
X06591Y02077
X0659105Y0211685
X065919Y0215476
X0663107
X0663Y02117
X0667059Y0211548
X0671022Y02117
X0674819Y0211657
X06709Y0215557
X0667191Y0215555
X0667Y0219474
X0663162Y0219481
X06591Y0219578
X0659235Y02233
X0655297Y0219114
X06551Y0215476
X0655261Y0211548
X0655Y0199717
X0647336Y01966
X06418Y01877
X0633725Y018305
X0631533Y01819
X0629403Y01842
X06296Y0179292
X0648956Y01795
X06681Y01797
Y01825
Y01855
X06661Y01871
Y01906
X06681Y01891
Y01922
X06734Y0184
X06705Y01784
X06666Y01754
X0670985Y0207634
X06747Y022346
X0674864Y0227342
X0667191
X0667102Y0231282
X0674918Y02352
X0674954Y02433
X0674864Y0255116
X0655152Y025495
X0659282Y0262797
X0663162Y02707
X0647337Y0270877
X06473Y0274682
X0643417Y0274761
X0643411Y0270877
X0635527Y0259
X0631625
X0627589Y025906
X0627646Y02628
X06275Y02669
X0627532Y02551
X0627596Y02511
X06275Y0247135
X0627646Y024319
X0631578Y0243168
Y0247093
X0627488Y0231307
X0627481Y0227356
X0627673Y02155
X0631533Y0215476
X0631378Y02117
X0635499
X063558Y0215557
X0635585Y0219114
X06357Y02233
X063945Y0215557
X0639463Y02117
X063945Y0207634
X06354
X0631733Y020766
X062755Y02077
X0663162Y02392
X0659135Y02867
X06591Y02905
X0746396Y0312416
X07071Y022346
X062365Y0227356
Y0231307
Y02352
X0619681
X0619581Y0231327
Y0227361
X0615646Y0227368
X0611765Y022741
Y0231381
X0615646Y0231364
X0615674Y02352
X06119
Y02392
X06157
X0619581
X0623567Y0239181
X0623585Y0243215
X062365Y0247095
Y0251065
Y0255043
X06236Y025906
X0623567Y0262979
X0623582Y0266951
X06236Y0270877
Y0274601
X0619662Y0274682
X0619581Y0270831
Y0266915
X06157Y02669
Y02707
Y0274565
X0611767Y0274601
X0608Y02745
X0607919Y02707
X0607941Y0266906
X0611782Y02669
Y02707
X0603878
X060397Y0266906
Y0262979
X0607772Y0263004
X0608Y0259
X06119
Y02628
X06157Y0262828
Y0259
X06196Y0259028
X0619581Y0262909
Y0254957
X06157Y0255004
X06119Y02551
X0608Y025495
Y0251024
X0611841Y02511
X06157
X0615678Y02472
X06119
Y02433
X0615678Y0243296
X0619681Y02433
X06196Y0247135
X0619681Y02511
X06078Y0247091
X060397Y0247079
Y0243152
X0607919
X0608Y0239181
X0603843
X0599904Y02392
X0599937Y02352
Y0231364
X0599947Y0227382
X0595976Y0227342
X0596Y02237
X05921Y02235
Y02196
X0588067Y0219503
X05841Y0219578
X0580267Y0219481
X05802Y02235
X0584158Y0223496
Y0227382
Y0231282
Y023525
X05803
Y023145
Y0227727
X0588067Y022741
Y0231381
X0588073Y023525
X0592Y02352
Y0231298
Y0227356
X05882Y02235
X0588132Y0215348
X0591933
X05921Y0211615
Y02077
X05882
X05843
X0584139Y0211531
Y0215348
X05803Y02117
X0574468Y0210329
X05711
X05677Y02108
X0564Y02107
X05611Y0214421
X0561361Y02233
X05616Y0229
X0550737Y0228011
X0549885Y0214345
X05462Y021
X05424Y02098
X05398
X05358Y0210038
X05326Y02098
X05289Y021004
X05256
X0519Y02102
X05161Y021
X05123
X05088Y02102
X05051
X0501617Y02104
X0490512Y0194787
X04874Y0194372
X04838Y01935
X04765Y02028
X04732Y0206
X04704Y02051
X04689Y02027
X04718Y021
X04704Y01802
X04701Y01772
X04783Y01779
X0475281Y0181683
X0493785Y0176423
X0490512Y01624
X0483001Y0159151
X0547969Y01966
X0588067Y0211531
X059605Y0211615
Y02077
X0599904Y0207645
X0603936Y02077
X06078Y0207645
X06117
Y021157
X06078Y0211551
X0607896Y02155
Y0219114
X0611765
X0611684Y0215476
X06157
Y0219114
X0619615Y0219481
X0619581Y02233
X0619524Y0215476
X061965Y0211551
X0619681Y0207634
X0622881Y0206952
Y0202669
X0623748Y02117
Y0215476
X06157Y02117
Y0207634
X0603762Y021157
X0600104
Y02155
X0599889Y0219114
X0595963
X05962Y02155
X060395
X0603843Y0219114
X060397Y0227368
X0607772Y0227382
Y0231463
X06078Y02352
X0603878
X060397Y02315
X06001Y02433
X0600019Y0247079
X0596083
X0591933Y0247246
Y0251004
X0592Y0254916
X0588073
X0588094Y02588
X0592Y0259084
Y0263025
Y02669
X0591933Y0270884
Y0274785
X0588094Y027485
X0588086Y0270948
X0588094Y026705
X05841
X0584158Y027075
Y0274785
X0580248Y027475
X05803Y027105
Y026695
Y0262909
X0584158Y02628
X0588073Y0263048
X05961Y0262859
X0595976Y0259
X0599904Y0259064
X060397Y0259
X0603889Y0255113
X06001Y025495
X0599904Y02511
X0603843Y0251024
X0591996Y0243152
X0591933Y0239176
X0588132Y02393
X0588059Y0243011
X0588094Y024705
X0584158
Y02433
X0580169
Y024705
Y0250744
X05841
X0584158Y0254916
X0580334
X05803Y02588
X05711Y0257796
X0572146Y0250744
X05803Y02393
X0584162
X0584158Y0278801
Y028255
X05803
X0580227Y0278801
X0580217Y028655
X0584158
X05841Y0290525
X05803Y0290584
Y029455
Y0298329
X05841Y0298413
Y03021
X0588124Y03023
Y0298502
X0592Y02985
Y03023
X059605Y030237
Y02985
Y02947
X06001
X060395Y0294733
X06039Y02984
X06078Y0298407
Y03023
X061165
Y0298502
X0611782Y02945
X06157
X0619581
X06196Y0298502
Y030237
X06157Y03023
Y02984
X0615694Y029059
X06119Y02905
X06078
X0603891
X06001
X05961
X05962Y02867
X0592
Y0290539
X05882Y02905
X0588132Y028665
X05882Y028255
Y0278801
X0592Y0278783
Y028265
X0596054Y0282515
X0595997Y0278801
X0599947Y0278731
X06001Y02825
X060397Y0282658
Y0278771
X0607772
X0607919Y0282713
X0611782Y0282693
X0615674Y0282681
X0615678Y0278771
X06119Y0278665
X0619581
Y0282693
X062363
X0623552Y0278771
X06236Y02905
X0619681
X062365Y02945
X06236Y02984
Y03023
X06039Y030237
X059995Y0302181
Y0298502
X0592Y02947
X05841Y029455
X0570346Y02867
X05616Y0284386
X05611Y027495
X0562Y02703
X0562155Y0294556
X0550737Y03021
X0549885Y0284498
X05462Y0258932
X05424
X05392Y02589
X05358
X05326
X05289
X05256Y0259585
X05236Y02582
X05215Y02596
X051943Y0258327
X05174Y02596
X05159Y02613
X05122Y02602
X05091Y02604
X05088Y02628
X05106Y02584
X0514Y02583
X0506Y0258327
X0503504Y0259585
X0498851Y030805
X06078Y02945
X0603889Y0274719
X0599904Y0274646
X0599929Y0270877
X0599904Y0266952
X04322Y026448
Y0270052
Y0276426
Y02835
Y0290984
X04267Y02954
X04213Y0301799
Y0306368
X0431623Y0258327
X04495Y02414
X0454468Y023665
X0459318Y02316
X0463515Y022625
X0468459Y02216
X046695Y0200162
X0465315Y0195694
X046695Y0177071
X0459016Y01817
X0455866
X0449567Y01808
X04464Y01804
X04402Y0180783
X0437Y01808
X0430669Y01817
X04274
X042122Y01805
X0418071Y01802
X0411772
X04085Y01805
X04024
X0399173Y01802
X03928Y01805
X0389724
X0383425
X03804Y01817
X0377126Y01773
X0373976
X0367677Y01792
X0364528Y01773
X0358228
X0355079
X034878
X034563
Y01949
X03425
X0351929
X0355079Y0194
X0361378
X0364528Y01949
X0370827
X0373976
X03826Y01635
X03859Y01638
X0391971Y0161228
X03959Y01638
X04024Y01647
X0405472Y0164528
X041175Y01647
X0414769Y0164597
X042122Y01624
X042437Y01647
X0430622
X0433844Y0164539
X0438416Y0163217
X0443268Y01647
X0449567Y0163866
X04525Y0164
X0459016Y0164907
X0462291Y0160187
X0320433Y0162735
Y0196879
X0310984
X0301535
Y0162735
X0310984
X0257Y01605
X0166739Y017673
X01563Y01728
X0199293Y0236339
X0199189Y0245788
X02146Y02483
X021713Y02458
X02136Y0252437
Y0254387
X02149Y02647
X0214283Y0279071
X0212904Y028045
X02153Y02928
Y02961
X01967
X01948Y02898
X0193Y0280075
Y0278125
X0191049Y0269475
Y0267525
X01879Y02615
X01827Y02884
X01737Y02896
X0232Y0286733
X0235016Y0275316
X0236395Y0273937
X01502Y02644
X0144Y0261536
X0141818Y0267473
Y0269527
X0109463Y0303925
Y0305875
X012455Y0195394
X01285Y01942
X01318
X01329Y01971
X01286Y0198544
X0131059Y0201694
X0131Y0190427
X01345
X0136172Y0193494
X0139222Y019015
X0141403Y01911
X0138Y01874
X01329Y01861
X01275Y01911
X01132Y016376
X0146048Y016
X0066293Y0168731
X0064328Y0171109
X0056829Y0396821
X00596Y04249
X0144141Y04445
X01467
X0140409Y03496
Y034645
Y0343301
X0137672Y034135
X0141166Y0337127
X0143673Y0333727
X0141649Y0330827
X02Y03308
X0199973Y03339
X0199896Y03371
X02076Y03401
X02066Y03433
X02069Y03496
X02174Y03544
X02153Y0338
X025798Y03339
X0281465Y0339711
X0281344Y0341782
X0289712Y03387
X0291662
X0304797Y0338825
X0304676Y0340896
X0301535Y0342908
X0308434Y0337351
X0310567Y0337296
X03076Y03574
X03046
X02983
X0295
X0292087Y0355865
X02889Y03574
X02857
X02828Y0355593
X0282638Y0323939
X02857
X0295293
X0286439Y0416732
X0276331
X0222322Y0426622
Y0464537
X03138Y03581
X03171Y03562
X03235
X03267
X03331Y03548
X03361
X03423
X03456Y03547
X03519Y03551
X0355
X03612Y03553
X036425
X037035Y03547
X037435Y03548
X03798Y03547
X0383
X0389813Y0354713
X03927Y03547
X03991Y03551
X0402344Y03548
X04083Y03551
X0411629
X0411429Y0338
X0415Y03376
X0421Y03377
X04213Y03425
X04182
X04276
X04306
X04371
X04401
X0446618
X04495
X0464572Y03392
X046798Y0340881
X0461818Y03244
X0459318
X04524
X04433Y03235
X04401
X04337Y03242
X04306
X04244Y03235
X0420993Y0320804
X04213Y0313223
X04053Y0337108
X0402344Y0337411
X03958Y0338
X03927Y03376
X0385975Y0337557
X0384025
X03669Y0337411
X03627Y03387
X03582Y03374
X0355Y03373
X03488
X03456Y0337416
X03393Y03376
X03361
X03298Y0338
X03267
X0319833
X0317883
X0462165Y0359669
X04829Y0356225
X04843Y03543
X04873
X04905Y03554
X04888Y03577
X0495275Y0358798
X0498851Y0350632
Y0341424
Y0329718
Y03247
Y0318884
Y0313976
X04937Y03255
X0490292Y0325308
X0487041Y0325611
X04797Y03392
X04758Y03403
X04731Y03385
X04704Y03417
X047785Y0387754
X0563702Y0365119
Y0358677
Y0351968
X0572256Y0355541
X0572584Y03485
X05797Y0351376
Y03582
X057965Y0366108
X0584611Y0362376
X058465Y0355007
X0571863Y03626
X057223Y036915
X0570346Y033525
X05926Y0326
X0595976Y03259
X05997
X06044Y032545
X06082Y03255
X0607551Y0322399
X0619681
X0623567Y032195
X0624672Y0430154
X06212Y04338
X0618Y04373
X0624388Y0438416
X06032Y04482
X06293Y0435568
X0634007
X0632268Y0431057
Y0423536
X0630894Y0420429
X0635451Y0419811
X0636468Y04265
X06293
X0625161Y04247
X0645615Y0414896
Y040415
X0650907Y0398357
X0656587Y0398093
X0662488Y0398451
X066442Y0419038
X0658543
X0652692
X06535Y04559
X0659228Y04565
X06657
X06712
X06761Y045655
X06826
X06463
X06433Y04601
X064155Y0466068
X06905Y04208
X0694027Y0423907
X07038Y04251
X0705778Y04208
X0700769Y0428779
X07193Y04247
X07255
X0725455Y0417509
X07193Y0417042
X07221Y04141
Y04208
X07207Y04083
X0726293Y04089
X0727305Y040365
X0722893Y040415
Y0397857
X07207Y0393084
X07212Y03881
X07255
X07259Y03922
X07038Y04
X0704789Y0405757
X0698517Y0403357
X06905Y0410582
X065515Y032195
X06465Y0322
X0633512Y0321584
X0630894Y03255
X0744996Y0319516
X07423Y03158
X0748796Y0316416
X0801718Y0394329
X08054Y03907
X08111
Y03945
X0818272Y0396
X081946Y0391829
X0815532Y0415089
X0808946Y041652
X0812056Y0420275
X0807768Y04235
X0817272Y0423711
X0827079Y0417376
X0800177Y04141
Y040415
X07964Y04486
X0807909Y04623
X08085Y04658
X08081Y0484
X0807909Y048698
X08063Y04966
X0821913Y0477694
X0864846Y0475783
X08695Y04756
X0868128Y04795
X0864Y04817
X08667Y04724
X07836Y0484331
X0734148Y0487199
X0734367Y04811
X0726489Y04926
Y0498
X071748Y049013
X06754Y0478467
X06712Y0478351
Y047365
X06756
X06759Y04691
X06712
X06657
Y047365
Y0478282
X0668684Y0482315
X0658728Y0483722
X0649771
X06424Y0478153
X06433Y04724
X06388Y05316
X07002Y05329
X0752202Y05194
X0751415Y051245
X0588898Y05061
X0569857Y05024
X0563702Y05061
X0563458Y0490349
Y0487199
X0550849
Y0490349
Y048405
X05568Y05224
X04525Y04914
X0217467Y0516086
X0218846Y0517465
X0209518Y0515954
X0207568
X0197707Y05367
X0195757
X0192038Y0475059
X01282Y04876
X0125601Y0486402
X01107Y0497
X011225Y0502617
X01158Y05084
X01222Y0511117
X01294Y0511657
X0093229Y0506076
X0091279
X0081475Y0509189
X0079525
X0069607Y051259
X0067657
X0047031Y05166
X0067832Y0473454
X00952Y04784
X00981Y04703
T02
X04718Y01638
X046695Y0160187
X0463515Y01792
X0418999Y0518109
X04142
X04126Y05212
X041725
X04214
X0419499Y05245
X04147Y05246
X0287862Y0523366
X02845
Y0518247
X02883Y0518
Y051405
X02845
Y05098
X0287862Y0509059
X02883Y05043
X02845Y05051
X0279488
Y05098
Y051405
Y0518247
Y0524315
X02729Y0523366
Y0518
X02737Y051405
Y05098
Y05043
T03
X0379273Y0096627
X03815Y00944
X00699Y03727
X00652Y03734
X00626Y0380472
X0073192Y0396187
X00817Y0408
X0038398Y0396187
X0026351Y0391856
X00302Y041784
X0627472Y0478082
X0752202Y0516026
X0614194Y0496648
X0614Y04885
X0614194Y0482315
T04
X0011Y0011
X0022
X0033
X0044
X0055
X0066
X0077
X0088
X0099
X011
X0121
X0132
X0143
X0154
X01265Y0022
X01155
X01045
X00935
X00825
X00715
X00605
X0066Y0033
X0055
X00495Y0044
X00385
X00275
X00165
X0011Y0055
X0033
X0044
X00495Y0066
X00385
X00275
X0033Y0077
X0044
X00495Y0088
X00605
X0055Y0099
X00495Y011
X00385
X00275
X00165
X0022Y0121
X0033
X0044
X00495Y0132
X00605
X00715
X0077Y0143
X0088
X0099
X011
X0121
X01155Y0154
Y0132
X0121Y0121
X011
X0099
X0077
X0066
Y0143
X0055
X0044
X0033
X00385Y0154
X00495
X00605
X00715
X00825
X00935
X00825Y011
X0077Y0099
X00825Y0088
X011Y0099
X0121
X01155Y011
X01485
X0154Y0121
X0143
X01485Y0132
X0154Y0143
X01485Y0154
X0143Y0099
X01485Y0088
X0143Y0077
X01485Y0066
X0154Y0055
X0143
X0121
X01265Y0066
X01155
X0099Y0055
X0066
X00385Y0088
X00275
X00165
X0011Y0099
X0033
X00275Y0132
X00165
Y0154
X00275
X0011Y0077
Y0033
X00165Y0022
X00275
X00385
X0121Y0033
X01265Y0044
X01595
X01705
X01815
X01925
X02035
X02145
X02255
X0231Y0033
X0242
X0253
X0264
X0275
X0286
X02915Y0044
X03025
X0308Y0055
X0297
X03025Y0066
X02915
X0297Y0077
X0286
X0275
X0264
X02695Y0088
X02915
X03025
X02695Y0066
X0264Y0055
X0253
X0242
X02475Y0066
X02365
X02255
X02145
X02035
X01925
X01815
X01705
X01595
X0165Y0077
X0176
X0187
X0198
X0209
X022
X02255Y0088
X02365
X02475
X0242Y0077
X02475Y0044
X02695
X02805
X02915Y0022
X03025
X0308Y0033
X02695Y0022
X0264Y0011
X0253
X0242
X0231
X02255Y0022
X02145
X02035
X01925
X01815
X01705
X01595
X0165Y0033
X0176
X0187
X0198
X0209
Y0055
X022
X0198
X0187
X0176
X0165
X01705Y0088
X01815
X01925
X02035
X02145
X0209Y0099
X0198
X0187
X01925Y011
X0187Y0121
X0165
X01705Y0132
X01595
X0165Y0143
X01705Y011
X0165Y0099
Y0011
X0176
X0187
X0198
X0209
X02145Y0154
X02365
X02695
X02805
X02915
X03025
X03135
X03245
X03355
X03465
X03575
X03685
X03795Y0088
X03905
X04015
X04125
X04235
X04345
X04455
X04565
X0451Y0077
X044
X0429
X0418
X0407
X0396
X0385
X0374
X0352
X0341
X033
X03355Y0088
X03465
X03575
X03245
X03135Y0066
Y0044
X03575
X03685
X0363Y0033
X0352
X03685Y0022
X03795
X03905Y0044
X04235
X044Y0033
X04455Y0022
X04565
X04345
X04675Y0044
X04895
X05005
X0506Y0033
X0495
X0484
X04895Y0022
X05005
X05115
X05225
X05335
X05445
X05555
X0561Y0033
X0572
X05775Y0044
X05885
X05995
X06105
X06215
X0616Y0033
X0605
X06105Y0022
X06215
X0616Y0011
X0605
X0594
X05995Y0022
X05665Y0044
X05445
X055Y0055
Y0033
X0528
X05225Y0044
X0528Y0055
X0495
X05005Y0088
X04785
X05335
Y0154
X05225
X05115
X05005
X04895
X04785Y0022
X06325
X06435
X06545
X06655
X06765
X0682Y0033
X0693
X0704
X0715
X0726
X07315Y0044
X07425
X0748Y0033
X0759
X07645Y0022
X07755
X0781Y0033
X07755Y0044
X077Y0055
X0759
X07645Y0066
X07755
X077Y0077
X0759
X0748
X0737
X0726
X07315Y0066
X07425
Y0088
X07535
X07645
X07755
X0781Y0143
X0748
X07535Y0154
X07425
X07095Y0088
X07205Y0066
Y0044
X07095
X06985
X06875
X06765
X06655
X06545
X06435
X06325
X0638Y0033
X0649
X066
X0671
Y0011
X0682
X0693
X0704
X07095Y0022
X07205
X07315
X07425
X07535
X0759Y0011
X077
X0781
X0748
X0726
X06985Y0022
X066Y0011
X0649
X0638
X0627
Y0033
X06435Y0088
X06545Y0132
X06325
X0792Y0143
X0803
X0814
X0825
X0836
X0847
X0858
X08635Y0154
X08745
X08525
X08415
X08305
X08195
X08085
X07975
X07865
Y0088
X07975
X08085
X0825Y0077
X0836
X08415Y0088
X08525
X08635
X0858Y0099
X08635Y011
X08745
X08855
X08965
X09075
X09185
X09295
X0935Y0099
X0924
X0913
X0902
X09075Y0088
X09185
X09295
X0924Y0077
X0913
X0902
X09075Y0066
X09185
X09295
X0935Y0055
X0924
X0913
X0902
X0891
X088
X0869
X0858
X0847
X08525Y0066
X08635
X08745
X08855
X08965
Y0088
X08855
X088Y0099
Y0077
X0858
X08635Y0044
X08745
X08855
X08965
X09075
X09185
X09295
X0935Y0033
X0924
X0913
X0902
X09075Y0022
X09185
X0924Y0011
X0935
X0913
X0902
X0891
X088
X08855Y0022
X08965
X08745
X08635
X0858Y0033
X0847
X08525Y0044
X08415
X08305
Y0022
X08415
X0847Y0011
X0858
X0836
X0825
X08195Y0022
X0803Y0033
X0792
Y0011
X088Y0033
X0902Y0143
X09075Y0154
X09185
X0968Y0143
X0979
X099
X1001
X10065Y0154
X09955
X09845
X099Y0121
X1001
X10065Y011
X09955
X09845
X09735
X09625
X09515
X09405
X0946Y0121
X0957
X0968
X0979
Y0099
X099
X1001
X10065Y0088
X09955
X09845
X09735
X09625
X09515
X09405
X0946Y0099
X0957
X0968
Y0077
X0979
X099
X1001
X10065Y0066
X09955
X09845
X09735
X09625
X09515
X09405
X0946Y0077
X0957
Y0055
X0968
X0979
X099
X1001
X10065Y0044
X09955
X1001Y0033
X10065Y0022
X09955
X1001Y0011
X099
X0979
X0968
X0957
X0946
X09515Y0022
X09625
X09735
X0957Y0033
X0946
X09515Y0044
X09625
X09405
X0946Y0055
X09405Y0022
Y0176
X09955
X10065
X1001Y0187
X10065Y0198
X1001Y0209
X10065Y022
X1001Y0231
X10065Y0242
X09955
X09845
X099Y0253
X1001
X10065Y0264
X09955
X1001Y0275
X099
X0979
Y0297
X09845Y0308
X09955
X10065
X1001Y0297
X10065Y0286
X09955
X0979Y0253
X0968Y0209
X099Y0165
X1001
X0924
X0935Y0187
X09295Y022
Y0242
X08855
X08745
X08635
X08525
X08415
X08305
X08195
X08085
X0814Y0253
X0825
X0836
X0847
X0858
X0869
X088
X0891
Y0231
X088
X0869
X0858
X0847
X0836
X0825
X0814
X0792
X07865Y0242
X0792Y0253
X07865Y0264
X0792Y0275
X08085Y0286
X08195
X08525
X08635
X08745
X088Y0297
X0891
X08855Y0308
X08745
X08635
X0869Y0297
X0858
X0924
X09295Y0308
X09185
X08855Y022
X08745
X08635
X08525
X0858Y0209
X0869
X088
X0891
X08855Y0198
X08745
X088Y0187
X08855Y0176
X08745
X08635
X08525
X08415
X08305
X08195
X08085
X07975
X07865
X0792Y0187
X0803
X0814
X0825
Y0165
X0836
X0847
X0858
X0869
X088
X0858Y0187
X08525Y0198
X0814Y0165
X0803
X0792
X0781
X077
X07755Y0176
X0781Y0187
Y0209
X077
X07645Y0198
X07535
X07315
X07205
X0726Y0209
X0715
X07205Y022
X07315
X0726Y0231
X07315Y0242
X07205
X0726Y0253
X0715
X07205Y0264
X07315
X0726Y0275
X07315Y0286
X07205
Y0308
X07315
X07535Y0286
Y0264
X07645
X07755
X0781Y0275
X077
Y0253
X0781
X07755Y0242
X07645
X07535
X077Y0231
X0781
X0693
X0682
X06875Y0242
X0693Y0253
X0682
X06875Y0264
X0693Y0275
X0682
X06875Y0286
X0693Y0297
X0682
X06875Y0308
Y022
X0693Y0209
X0682
X0715Y0165
X05775Y0198
X0561Y0209
X055
X05445Y0198
X05335
X05225
Y0176
X05335
X05445
X0539Y0165
X0528
X0517
X0506
X05115Y0176
X05005
Y0242
X05335
X05445
X05665
Y0308
X05775
X05335
X05225
X05115
X0517Y0297
X0506
X05115Y0286
X05005
X04675
Y0308
X04455
X0451Y0297
X04235Y0286
X04125
X04015
X03905
X03795
X03685
X03575
X03465
X03355
X03245
X03135
X0319Y0297
X033
X0341
X0352
X0363
X0374
X0385
X0396
X0407
X04125Y0308
X04015
X03905
X03795
X03685
X03575
X03465
X03355
X03245
X03135
X0319Y0275
X033
X0341
X0352
X0363
X0374
X0385
X0396
X0407
X0418
X0429
X04235Y0264
X04125
X04015
X03905
X03795
X03685
X03575
X03465
X03355
X03245
X03135
X0319Y0253
X033
X0341
X0352
X0363
X0374
X03685Y0242
X03575
X03465
X03355
X03245
X03135
X0319Y0231
X033
X0341
X0352
X03465Y022
X03355
X03245
X03135
X0319Y0209
X033
X0341
X03355Y0198
X03245
X03135
X033Y0165
X0352
X0363
X0374
X03795Y0198
X03905
X04015
X04125
X04235
X04345
X04455
X04565
X0462Y0209
X0451
X044
X0429
X0418
X0407
X0396
X0385
X0374
X03795Y022
X03905
X04015
X04125
X04235
X04345
X04455
X04565
X0451Y0231
X044
X0429
X0418
X0407
X0396
X0308
X0297
X0286
X0275
X0264
X02695Y0242
X02805
X02915
X03025
X0308Y0253
X0297
X0286
X0275
X0264
X0253
X0242
X0231
X02365Y0264
X0242Y0275
X0253
X0264
X0275
X0286
X0297
X0308
X03025Y0286
X02915
X02805
X02695
X0275Y0297
X0286
X0297
X0308
X03025Y0308
X02915
X02805
X02695
X0264Y0297
X0253
X0242
X02365Y0308
X02145
Y0286
X01925
Y0308
X01815
X01705
X0176Y0297
X01705Y0286
Y0242
Y022
X0187Y0231
X0198
Y0209
X0187
X01815Y0198
X0187Y0187
X0198
X02035Y0176
X01925
X022Y0165
X0242
X0253
X0275
X0286
X0297
X0308
Y0209
X0297
X0286
X0275
X0264
X0253
X0242
X02365Y022
Y0198
X0242Y0187
X0253
X0264
X02695Y0198
X02805
X02915
Y022
X03025
X02805
Y0264
X02915
X03025
X02695
X02145Y0242
Y022
Y0198
X02365Y0176
X01265
X0121Y0187
X011
X0099
X0088
X0077
X0066
X0055
X0044
X0033
X0022
X0011
X00165Y0198
X00275
X00385
X00495
X00605
X00715
X00825
Y0176
X0077Y0165
X0066
X0121
X01155Y0198
X01045
Y022
X00935
X00825
X00715
X00605
X00495
X00385
X00275
X0033Y0231
X0044
X0055
X0066
X0077
X0088
X0099
X011
X0121
X0132
X01265Y0242
X0121Y0253
X011
X01155Y0264
X01265
X01375
X0143Y0253
X01485Y0286
X01375
X01265
X0132Y0297
X0143
X01485Y0308
X01375
X01265
X01155
X01045
X00935
X00825
X00715
X00605
X0055Y0297
X0066
X00605Y0286
X00495
X00385
X00275
X0033Y0297
X0044
X00385Y0308
X00165
X0011Y0297
Y0275
X0033
X0044
X00495Y0264
X00605
X0055Y0253
X0066
Y0275
X00825Y0286
X00935
X01045
X011Y0297
X0121
X0099
Y0275
X011
X00385Y0264
X0044Y0253
X0033
X00385Y0242
X0011Y0253
Y0231
Y0209
X00165Y0176
X0011Y0319
X0033
X00385Y033
X0044Y0341
X0055
X0066
X00715Y033
X00825
X00935
X01045
X01155
X01265
X01375
X0143Y0319
X0121
X011
X0099
X0077
X0066
X00605Y033
Y0352
X00495
X00385
X00275
X00165
X0022Y0363
X0033
X0044
X00385Y0374
X00275
X00165
X0011Y0385
Y0363
Y0341
X0044Y0385
X00495Y0396
X00605
X00825
X0088Y0407
X0099
X011
X01155Y0418
X01045
X011Y0429
X0099
X00935Y044
X00825
X00715
X00605
X00495
X00385
X00275
X00165
X0011Y0451
X00165Y0462
X00385Y0418
X00495
X00605
X00715
X0077Y0429
X0055
X00605Y0374
X00825
X00935
X01045
X01155
X01265
X01375
X01485
X0143Y0385
X0132
X0121
X01265Y0396
X01375
X0132Y0407
X01155Y0396
X0099Y0385
Y0363
X011
X0121
X0143
X01485Y0352
X0088Y0363
X01375Y044
X0143Y0451
X0132
X01485Y0462
X01595
X01705
X02145
X02255
X022Y0451
X0209
X02145Y044
X022Y0429
X0231
X02255Y0418
X02145
X022Y0407
X0231
X0242
X0253
X0264
X02695Y0418
Y044
X0275Y0451
X0264
X02915Y0462
X03025
X0308Y0451
X0297Y0429
X0286
Y0407
X0297
X02915Y0396
X0297Y0385
X0286
X02915Y0374
X0286Y0363
Y0319
X0297
X0308
X02695Y033
X0253Y0319
X0242
X02365Y033
X0242Y0341
X02475Y0352
X0242Y0363
X022
X0209
X0198
X0187
X0176
X01815Y0352
X01925
X02035
X02145
X02255
X022Y0341
X02145Y033
X0198Y0319
X0187
X0176
X01705Y0352
Y0374
X0187Y0385
X0198
X0209
X02145Y0396
X02035
X0209Y0407
X0198
X0187
X0176
X01815Y0418
X01925
X0198Y0429
X0209
X0187
X01925Y044
X01815Y0396
X02475
X02585
X02695
X0264Y0385
X0253
X0319
X033
X03355Y0396
X03245
X03135
Y0418
X03245
X03355
X03465
X03575
X0363Y0429
X0374
X03795Y044
X03685
X03575
X03465
X03355
X03245
X03135
X0319Y0451
X03135Y0462
X03465
X03575
X03685
X0374Y0451
X0385
X0396
X03905Y0462
X0363Y0451
X0352
Y0429
X0341
X033
Y0407
X0341
X0352
X04015Y0374
X04125
X04235
X04345
X04455
X04565
X0462Y0363
X044
X0429
X0418
Y0385
X0429
X044
X0407Y0341
Y0319
X0396
X0385
X0374
X0363
X0352
X0341
X033
X0319
X0473Y0341
Y0363
X0484
X0495
X0506
X0517
X0528
X05335Y0374
X05445
X055Y0385
X0539
X0528
X0517
X0506
X0495
X0484
X0473
X04785Y0374
X04895
X05005
X05115
X05225
Y0352
X05115
X0528Y0319
X0539
X055
X0583
X0671
X06765Y0352
X06875
X06985
X0693Y0363
X0682
X0671
X06765Y0374
X06655
X0671Y0385
X06655Y0396
X06545
X06435Y0418
X0649Y0429
X066
X06545Y044
X06435
X06985
X0704Y0451
X0693
X06985Y0462
X07315
X0726Y0451
X07315Y044
X07425
X07535
X07645
X077Y0429
X0759
X0748
X0737
X077Y0385
X07755Y0374
X0781Y0341
X077
X07755Y033
X07645
X07535
X0715Y0319
X07205Y0352
X06655
X0792Y0341
X0803
X0814
X0825
X0836
X0847
X0858
X0869
X088
X0891
X08855Y033
X08745
X08635
X08525
X08415
X08305
X08195
X08085
X07975
X07865
X0803Y0319
X0814
X0858
X0869
X088
X0891
X0924
X09295Y033
X08965Y0374
X08855
X08745
X08635
X08525
X08415
X08305
X0836Y0385
X0847
X0858
X0869
X088
X0891
X0902
X08965Y0396
X08855
X08745
X08635
X08525
X08415
Y0418
X08525
X08635
X08745
X088Y0407
X0869
X0858Y0429
X0847
X0913
X0924
X0935
X09295Y044
X09185
X09075
X0913Y0451
X0924
X0935
X09295Y0462
X09185
X09075
X08965
X0902Y0451
X0891
X09295Y0418
X0935Y0407
X07865Y0374
X09405Y0352
X09845
X09955
X10065
X1001Y0341
X099
X0979
X09845Y033
X09955
X10065
X1001Y0319
X099
X0979
Y0407
X099
X1001
X10065Y0418
X09955
X09845
X09735
X09625
X09515
X09405
X0946Y0429
X0957
X0968
X0979
X099
X1001
X10065Y044
X09955
X09845
X09735
X09625
X09515
X09405
X0946Y0451
X0957
X0968
X0979
X099
X1001
X10065Y0462
X09955
X09845
X09735
X09625
X09515
X09405
X0946Y0407
X0957
X0968
X10065Y0396
X1001Y0473
X099
X0979
X0968
X0957
X0946
X09515Y0484
X09625
X09735
X09845
X09955
X10065
X1001Y0495
X099
X0979
X0968
X0957
X0946
X09515Y0506
X09625
X0957Y0517
X0946
X09515Y0528
X09625
X0968Y0539
X0979
X099
X1001
X10065Y0528
X09955
X1001Y0517
X10065Y0506
X09955
X09405
Y0528
X0946Y0539
X0957
X09405Y0484
X09295
X09185
X09075
X0913Y0495
X0924
X0935
X09295Y0506
X09185
X09075
X08965
X08855
X0891Y0517
X0902
X0913
X0924
X0935
X09295Y0528
X09185
X09075
X08965
X08855
X08745
X08635
X08525
X08415
X08305
X08195
X08085
X07975
X07865
X0792Y0539
X0803
X0814
X0825
X0836
X0847
X0858
X0869
X088
X0891
X0902
X0913
X0924
X0935
Y0473
X0924
X0913
X0902
Y0495
X088Y0517
X0869
X0858
X0847
X0836
X0825
X08305Y0506
X08415
X08635
X08195
X08085
X0803Y0517
X0792
X07865Y0506
X07755
X0781Y0517
X07755Y0528
X07645
X07535
X07425
X07315
X0737Y0539
X0748
X0759
X077
X0781
Y0495
Y0473
X0759
X07535Y0484
X0759Y0495
X0748
X07535Y0506
X07315
X0726Y0517
Y0539
Y0495
X07315Y0484
X0726Y0473
X0704
X06985Y0484
X0704Y0495
X0693
X06985Y0506
X06875
X0693Y0517
X0704
X0682
X0671
X066
X0649
X0638
X0627
X06325Y0506
X06435
X06655
X06325Y0484
X06215Y0506
X06105
X0616Y0517
X0605
X0594
X05775Y0506
X05665
Y0484
X055Y0495
X0539
X0528
X0517
X05225Y0506
X05335
X0539Y0517
X055
X0528
X05335Y0484
X05225
X05115
X0517Y0473
X0528
X0539
X0473
Y0495
Y0539
X0462
X0451
X0418
Y0495
X0407
X0396
X0385
X03905Y0484
X04015
X04125
X04235
X04565
X04675
X0462Y0495
X0451
X0462Y0473
X03465Y0484
X0341Y0495
X033
X0319
Y0539
X033
X0341
X0352
X0374
X0308
X0297
X0286
X0275
X0264
X0253
X0242
X02365Y0528
X022Y0539
X0209
X0187
X0176
X0187Y0517
X0198
X02035Y0506
X01925
X01815
X0187Y0495
X0198
X01925Y0484
X01705
X01595
X0165Y0495
X0176
Y0473
X0165
X0242
X0253
X0286
X0297
X0308
Y0495
X0297
X0286
X0275
X0264
X0154
X0143
X01485Y0484
X01375
X0143Y0473
X0154
X01155Y0484
Y0506
X01045Y0528
X011Y0539
X0121
X0132
X0143
X0154
X0099
X0088
X0077
X0066
X0055
X0044
X0033
X0022
X0011
X00165Y0528
X00275
X0033Y0517
X0022
X0011
X00165Y0506
X00275
X0022Y0495
X0011
X00165Y0484
X00275
X0033Y0473
X0022
X0011
X0077Y0495
X0088
Y0517
X0077
X00715Y0506
X0055Y0517
T06
X0503504Y0179361
X0214812Y0346719
X0503504Y0340061
T07
X0078461Y02729
Y02809
Y02889
Y02969
Y03049
X0088461Y03009
Y03089
Y02849
Y02769
Y02689
Y03169
X0078461Y03129
X00873Y04415
Y04515
T08
X0375Y00151
Y00251
X0385
Y00151
X0395
Y00251
X0405
Y00151
X0415
Y00251
Y00468
X0405
X0395
X0385
X0375
Y00568
X0385
X0395
X0405
X0415
X0442Y00251
X0452
Y00151
X0462
Y00251
X0442Y00151
X0472
Y00251
X0482
Y00151
X06064Y01249
Y01349
X06164
Y01249
X06264
Y01349
X06364
Y01249
X06464
Y01349
X08365Y0185
Y0195
Y0205
Y0215
Y0225
X08465
Y0215
Y0205
Y0195
Y0185
X08462Y02863
Y02963
Y03063
X08362
Y02963
Y02863
Y03163
Y03263
X08462
Y03163
T09
X0218342Y0009105
X0236058
Y0034695
X0218342
X0718542Y0035995
X0736258
Y0010405
X0718542
X0979705Y0131842
Y0149558
X1005295
Y0131842
T10
X02784Y00154
Y00254
X02884
Y00154
X02984
Y00254
X03084
Y00154
X03184
Y00254
X03284
Y00154
X03384
Y00254
X03484
Y00154
T11
X05076Y00161
X05176
X05276
X05376
X05476
X05576
X05676
X05776
X05876
X05976
X06076
X06176
X06176Y00861
X06076
X05976
X05876
X05776
X05676
X05576
X05476
X05376
X05276
X05176
X05076
X0508506Y00611
Y00511
Y00411
X06276Y00161
X06376
X06476
X06576
X06676
X06776
X06876
X06976
X06976Y00861
X06876
X06776
X06676
X06576
X06476
X06376
X06276
T12
X0876983Y0142441
X09643Y01794
X07418Y0288655
X02698Y0221
X05452Y03574
X06985Y04136
X09598Y03363
T13
X09325Y0019588
Y0080612
X0940688Y0377
X1001712
X071748Y0477782
Y0538805
X04944Y0532612
Y0471588
T14
X0214812Y0172703
X0266496Y0179361
Y0340061
T15
X0017461Y02633
X0027461
Y03225
X0017461
X0037461
T16
X09647Y0265429
Y0281965
Y02985
X0986354
Y0281965
Y0265429
T17
X0052461Y02583
Y03275
T18
X07207Y01431
X07307Y01531
X07407Y01431
X08684Y0100553
X08784Y0090553
X08884Y0100553
Y0080553
X08684
Y00367
X08884
Y00167
X08784Y00267
X08684Y00167
X07407Y01631
X07207
T19
X0143Y003162
X09816Y00335
X0979Y0517
X033Y0473691
T20
X0676101Y0198005
X0589074Y0315033
T21
X02437Y042123
Y04606
T22
X0017421Y00641
T23
X0686101Y0198005
X0569074
Y0315033
X0686101
T24
X0052461Y02739
Y03119
M30
